<?xml version="1.0" encoding="utf-8"?>
<svg width="700.4024" height="230.0592" viewBox="0 0 700.4024 230.0592" xmlns="http://www.w3.org/2000/svg">
  <defs>
    <style>.cls-1{fill:#fff;}.cls-2{fill:#0d0e59;}.cls-3{fill:#0072fd;}</style>
  </defs>
  <title>Veritise-Blue1-BGWhite-AI</title>
  <g id="DESIGN">
    <path class="cls-2" d="M19.2454,213.1508h-.699L7.0769,188.6754h3.9514l7.8676,17.6212,7.9027-17.6212h3.9162Z" style="fill: rgb(0, 114, 253);"/>
    <path class="cls-2" d="M57.2431,209.9688v3.182H41.6838V188.6754h15.21v3.182H45.39v7.551h8.0071v3.182H45.39v7.3784Z" style="fill: rgb(0, 114, 253);"/>
    <path class="cls-2" d="M82.683,213.1508,76.3191,203.92H72.5425v9.2305H68.9066V188.6754h8.2522c5.3847,0,8.7062,3.2161,8.7062,7.6214a7.347,7.347,0,0,1-5.8748,7.3081l6.7134,9.5459ZM72.5425,200.702h4.4064c3.2512,0,5.2791-1.6068,5.2791-4.4052,0-2.7962-2.0279-4.4053-5.2791-4.4053H72.5425Z" style="fill: rgb(0, 114, 253);"/>
    <path class="cls-2" d="M102.4343,213.1508H98.7632V188.6754h3.6711Z" style="fill: rgb(0, 114, 253);"/>
    <path class="cls-2" d="M119.4211,191.8574v7.551h9.6855v3.2183h-9.6855v10.5241h-3.7063V188.6754h15.1746v3.182Z" style="fill: rgb(0, 114, 253);"/>
    <path class="cls-2" d="M154.5318,201.7529v11.3979H151V201.7529l-9.1612-13.0775h4.0217l6.9234,9.9636,6.9235-9.9636h4.0206Z" style="fill: rgb(0, 114, 253);"/>
    <path class="cls-3" d="M196.5,219.7939h-3.0765V185.178H196.5Z"/>
    <path class="cls-2" d="M231.1241,213.1508H227.453V188.6754h3.6711Z" style="fill: rgb(0, 114, 253);"/>
    <path class="cls-2" d="M264.8946,200.8768a12.1,12.1,0,0,1-12.308,12.274h-7.8324V188.6754h7.8324A12.0843,12.0843,0,0,1,264.8946,200.8768Zm-3.637,0c0-5.1384-3.2512-9.1261-8.671-9.1261H248.39v18.3225h4.1965C258.0064,210.0732,261.2576,206.0538,261.2576,200.8768Z" style="fill: rgb(0, 114, 253);"/>
    <path class="cls-2" d="M292.653,209.9688v3.182H277.0937V188.6754h15.21v3.182H280.8v7.551h8.0072v3.182H280.8v7.3784Z" style="fill: rgb(0, 114, 253);"/>
    <path class="cls-2" d="M323.6875,213.1508h-3.4611l-12.274-18.3225v18.3225h-3.6359V188.6754h3.4611l12.2729,18.3225V188.6754h3.637Z" style="fill: rgb(0, 114, 253);"/>
    <path class="cls-2" d="M352.24,191.8915h-6.5739v21.2593h-3.8118V191.8915h-6.5739v-3.2161h16.96Z" style="fill: rgb(0, 114, 253);"/>
    <path class="cls-2" d="M367.4875,213.1508h-3.67V188.6754h3.67Z" style="fill: rgb(0, 114, 253);"/>
    <path class="cls-2" d="M384.4754,191.8574v7.551H394.16v3.2183h-9.6844v10.5241h-3.7062V188.6754h15.1745v3.182Z" style="fill: rgb(0, 114, 253);"/>
    <path class="cls-2" d="M419.5862,201.7529v11.3979h-3.5315V201.7529l-9.1624-13.0775h4.0217l6.9246,9.9636,6.9223-9.9636h4.0217Z" style="fill: rgb(0, 114, 253);"/>
    <path class="cls-3" d="M461.5534,219.7939h-3.0753V185.178h3.0753Z"/>
    <path class="cls-2" d="M511.7025,191.4716l-2.2719,2.6577a8.1409,8.1409,0,0,0-5.6649-2.2038,9.0075,9.0075,0,0,0,0,17.973,8.4314,8.4314,0,0,0,5.7353-2.2719l2.2378,2.6577a11.7974,11.7974,0,0,1-8.0094,3.1116,12.484,12.484,0,0,1,0-24.9656A11.6442,11.6442,0,0,1,511.7025,191.4716Z" style="fill: rgb(0, 114, 253);"/>
    <path class="cls-2" d="M546.2754,200.9131a12.4121,12.4121,0,0,1-12.2377,12.4828,12.4846,12.4846,0,0,1,0-24.9656A12.4121,12.4121,0,0,1,546.2754,200.9131Zm-20.56,0a8.64,8.64,0,0,0,8.3227,8.9854c4.546,0,8.3226-3.6019,8.3226-8.9854,0-5.3857-3.7766-8.9876-8.3226-8.9876A8.64,8.64,0,0,0,525.715,200.9131Z" style="fill: rgb(0, 114, 253);"/>
    <path class="cls-2" d="M574.7089,210.0732v3.0776H558.8694V188.6754h3.6v21.3978Z" style="fill: rgb(0, 114, 253);"/>
    <path class="cls-2" d="M602.2279,210.0732v3.0776h-15.84V188.6754H589.99v21.3978Z" style="fill: rgb(0, 114, 253);"/>
    <path class="cls-2" d="M629.193,209.9688v3.182h-15.56V188.6754h15.2109v3.182H617.3389v7.551h8.0071v3.182h-8.0071v7.3784Z" style="fill: rgb(0, 114, 253);"/>
    <path class="cls-2" d="M659.1336,191.4716l-2.2742,2.6577a8.1367,8.1367,0,0,0-5.6649-2.2038c-4.3349,0-8.3907,3.847-8.3907,8.9876a8.7621,8.7621,0,0,0,8.3907,8.9854,8.4314,8.4314,0,0,0,5.7353-2.2719l2.2378,2.6577a11.7916,11.7916,0,0,1-8.0071,3.1116,12.484,12.484,0,0,1,0-24.9656A11.6527,11.6527,0,0,1,659.1336,191.4716Z" style="fill: rgb(0, 114, 253);"/>
    <path class="cls-2" d="M687.0769,191.8915h-6.5727v21.2593h-3.813V191.8915h-6.5727v-3.2161h16.9584Z" style="fill: rgb(0, 114, 253);"/>
    <path class="cls-3" d="M229.2289,91.4273a65.91,65.91,0,0,1-.55,8.6338H158.1572c2.5714,13.0377,14.325,20.0163,24.2412,20.0163,8.45,0,14.5089-2.5714,18.7322-7.1625l19.2839,10.1017a50.1766,50.1766,0,0,1-38.2,17.2609c-19.8323,0-48.2985-15.4251-48.2985-48.85,0-33.0572,27.1788-49.034,47.9323-49.034C202.2341,42.3933,229.2289,58.37,229.2289,91.4273Zm-70.8878-8.9982h47.1983a24.3772,24.3772,0,0,0-23.6911-19.6518C171.5644,62.7773,161.0948,69.2075,158.3411,82.4291Z"/>
    <path class="cls-3" d="M307.9672,43.1289v21.852a65.5676,65.5676,0,0,0-8.6338-.3645c-16.7108,0-29.5662,12.1181-31.402,31.402v42.9751H244.4242V43.4967h23.5072V73.7986c2.02-17.08,11.3858-31.2214,31.586-31.2214A55.7294,55.7294,0,0,1,307.9672,43.1289Z"/>
    <path class="cls-3" d="M343.8224,31.5592h-23.875V10.44h23.875Zm0,107.4343h-23.875V43.4967h23.875Z"/>
    <path class="cls-2" d="M449.2107,31.7431H416.7053v107.25H390.9945V31.7431H358.489V10.44h90.7217Z" style="fill: rgb(0, 114, 253);"/>
    <path class="cls-2" d="M487.9477,31.5592H464.0743V10.44h23.8734Zm0,107.4343H464.0743V43.4967h23.8734Z" style="fill: rgb(0, 114, 253);"/>
    <path class="cls-2" d="M541.42,62.2289c-5.3267,0-9.55,2.752-9.55,7.3464,0,4.0394,2.3875,6.7947,8.4465,8.9983l11.9376,4.2233c13.7732,4.9589,27.5465,9.9178,27.5465,28.4661,0,19.4678-20.7519,29.0145-38.0144,29.0145s-34.8947-8.8143-39.118-25.343l19.6518-6.059c3.6715,7.8948,12.1214,11.3858,19.4662,11.3858,6.6124,0,13.4071-3.491,13.4071-9.3661,0-4.2233-2.9392-6.9786-8.816-8.9983L534.6239,97.49c-17.63-6.6141-27.1805-13.4088-27.1805-27.7338,0-16.8931,15.7947-27.3626,33.4251-27.3626,17.8126,0,29.75,9.1821,35.9948,23.3233l-21.12,5.3267C551.7025,64.6164,546.9275,62.2289,541.42,62.2289Z" style="fill: rgb(0, 114, 253);"/>
    <path class="cls-2" d="M684.7819,91.4273a65.9279,65.9279,0,0,1-.55,8.6338H613.71c2.5715,13.0377,14.3251,20.0163,24.2412,20.0163,8.45,0,14.509-2.5714,18.7322-7.1625l19.284,10.1017a50.1768,50.1768,0,0,1-38.2,17.2609c-19.8323,0-48.2984-15.4251-48.2984-48.85,0-33.0572,27.1787-49.034,47.9323-49.034C657.7871,42.3933,684.7819,58.37,684.7819,91.4273Zm-70.8877-8.9982h47.1983a24.3773,24.3773,0,0,0-23.6911-19.6518C627.1174,62.7773,616.6478,69.2075,613.8942,82.4291Z" style="fill: rgb(0, 114, 253);"/>
    <polygon class="cls-2" points="88.329 34.505 47.908 34.505 61.225 62.283 34.961 62.283 10.075 10.427 99.897 10.427 88.329 34.505" style="fill: rgb(0, 114, 253);"/>
    <polygon class="cls-3" points="139.344 10.427 77.636 138.989 71.784 138.989 40.409 73.616 66.673 73.616 74.71 90.396 113.08 10.427 139.344 10.427"/>
  </g>
</svg>